# 3ds Max Wavefront OBJ Exporter v0.99 - (c)2007 guruware
# File Created: 03.05.2022 13:30:40

mtllib hojasArbol.mtl

#
# object Plane001
#

v  -197.8807 395.3789 -49.4163
v  -241.3625 269.2599 -47.5401
v  -89.7220 217.1388 -36.7969
v  -46.2402 343.2579 -38.6730
# 4 vertices

vn -0.0586 0.0351 0.9977
# 1 vertex normals

vt 0.0000 0.0000 0.0000
vt 0.0000 1.0000 0.0000
vt 1.0000 1.0000 0.0000
vt 1.0000 0.0000 0.0000
# 4 texture coords

o Plane001
g Plane001
usemtl Material__50
s 1
f 1/1/1 2/2/1 3/3/1 4/4/1 
# 1 polygons

#
# object Plane002
#

v  44.0618 410.5815 193.6512
v  57.7814 284.4624 234.9545
v  26.5595 232.3414 86.1746
v  12.8399 358.4604 44.8713
# 4 vertices

vn 0.9755 0.0351 -0.2170
# 1 vertex normals

vt 0.0000 0.0000 0.0000
vt 0.0000 1.0000 0.0000
vt 1.0000 1.0000 0.0000
vt 1.0000 0.0000 0.0000
# 4 texture coords

o Plane002
g Plane002
usemtl Material__50
s 1
f 5/5/2 6/6/2 7/7/2 8/8/2 
# 1 polygons

#
# object Plane003
#

v  -75.3591 369.0173 104.5444
v  -62.5506 270.3776 193.4621
v  -90.4947 162.4278 77.7347
v  -103.3031 261.0675 -11.1830
# 4 vertices

vn 0.9801 -0.0468 -0.1930
# 1 vertex normals

vt 0.0000 0.0000 0.0000
vt 0.0000 1.0000 0.0000
vt 1.0000 1.0000 0.0000
vt 1.0000 0.0000 0.0000
# 4 texture coords

o Plane003
g Plane003
usemtl Material__50
s 1
f 9/9/3 10/10/3 11/11/3 12/12/3 
# 1 polygons

#
# object Plane004
#

v  54.2868 361.1134 -184.0326
v  73.6825 234.9943 -222.9941
v  -9.0872 182.8733 -95.4816
v  -28.4829 308.9923 -56.5201
# 4 vertices

vn -0.8448 0.0351 -0.5340
# 1 vertex normals

vt 0.0000 0.0000 0.0000
vt 0.0000 1.0000 0.0000
vt 1.0000 1.0000 0.0000
vt 1.0000 0.0000 0.0000
# 4 texture coords

o Plane004
g Plane004
usemtl Material__50
s 1
f 13/13/4 14/14/4 15/15/4 16/16/4 
# 1 polygons

#
# object Plane005
#

v  85.8826 412.9405 -84.4413
v  188.2555 328.6178 -98.9215
v  95.3684 207.2956 -49.1243
v  -7.0046 291.6183 -34.6441
# 4 vertices

vn -0.2778 -0.1750 -0.9446
# 1 vertex normals

vt 0.0000 0.0000 0.0000
vt 0.0000 1.0000 0.0000
vt 1.0000 1.0000 0.0000
vt 1.0000 0.0000 0.0000
# 4 texture coords

o Plane005
g Plane005
usemtl Material__50
s 1
f 17/17/5 18/18/5 19/19/5 20/20/5 
# 1 polygons

#
# object Plane006
#

v  189.5341 390.7720 74.5507
v  226.8656 262.9802 83.2587
v  79.2163 216.8767 39.6580
v  41.8848 344.6685 30.9500
# 4 vertices

vn 0.2786 0.0159 -0.9603
# 1 vertex normals

vt 0.0000 0.0000 0.0000
vt 0.0000 1.0000 0.0000
vt 1.0000 1.0000 0.0000
vt 1.0000 0.0000 0.0000
# 4 texture coords

o Plane006
g Plane006
usemtl Material__50
s 1
f 21/21/6 22/22/6 23/23/6 24/24/6 
# 1 polygons

#
# object Plane007
#

v  30.4442 384.3531 -36.7295
v  122.0000 288.4705 -51.7054
v  16.1068 179.2603 0.1272
v  -75.4490 275.1429 15.1031
# 4 vertices

vn -0.3081 -0.1474 -0.9399
# 1 vertex normals

vt 0.0000 0.0000 0.0000
vt 0.0000 1.0000 0.0000
vt 1.0000 1.0000 0.0000
vt 1.0000 0.0000 0.0000
# 4 texture coords

o Plane007
g Plane007
usemtl Material__50
s 1
f 25/25/7 26/26/7 27/27/7 28/28/7 
# 1 polygons

#
# object Plane008
#

v  44.1818 225.6637 -189.0587
v  54.9522 107.9249 -127.2382
v  3.2085 174.9187 9.3682
v  -7.5619 292.6575 -52.4524
# 4 vertices

vn -0.9433 -0.2178 -0.2505
# 1 vertex normals

vt 0.0000 0.0000 0.0000
vt 0.0000 1.0000 0.0000
vt 1.0000 1.0000 0.0000
vt 1.0000 0.0000 0.0000
# 4 texture coords

o Plane008
g Plane008
usemtl Material__50
s 1
f 29/29/8 30/30/8 31/31/8 32/32/8 
# 1 polygons

#
# object Plane009
#

v  85.7151 353.8242 86.3887
v  113.8849 226.0325 112.3874
v  6.9919 179.9290 1.5938
v  -21.1778 307.7208 -24.4049
# 4 vertices

vn 0.7162 0.0159 -0.6977
# 1 vertex normals

vt 0.0000 0.0000 0.0000
vt 0.0000 1.0000 0.0000
vt 1.0000 1.0000 0.0000
vt 1.0000 0.0000 0.0000
# 4 texture coords

o Plane009
g Plane009
usemtl Material__50
s 1
f 33/33/9 34/34/9 35/35/9 36/36/9 
# 1 polygons

#
# object Plane010
#

v  -69.0572 252.6342 177.6655
v  -59.2791 126.9986 133.8441
v  -0.9120 180.3414 -6.0655
v  -10.6901 305.9770 37.7559
# 4 vertices

vn 0.9288 -0.0555 0.3663
# 1 vertex normals

vt 0.0000 0.0000 0.0000
vt 0.0000 1.0000 0.0000
vt 1.0000 1.0000 0.0000
vt 1.0000 0.0000 0.0000
# 4 texture coords

o Plane010
g Plane010
usemtl Material__50
s 1
f 37/37/10 38/38/10 39/39/10 40/40/10 
# 1 polygons

#
# object Plane011
#

v  -106.0851 347.1949 -57.0868
v  -141.2180 219.4031 -72.4213
v  -3.9256 173.2996 -2.7642
v  31.2073 301.0914 12.5703
# 4 vertices

vn -0.4481 0.0159 0.8938
# 1 vertex normals

vt 0.0000 0.0000 0.0000
vt 0.0000 1.0000 0.0000
vt 1.0000 1.0000 0.0000
vt 1.0000 0.0000 0.0000
# 4 texture coords

o Plane011
g Plane011
usemtl Material__50
s 1
f 41/41/11 42/42/11 43/43/11 44/44/11 
# 1 polygons

#
# object Plane012
#

v  -193.7607 158.5556 17.9687
v  -102.7870 61.2737 25.7307
v  14.3350 169.0150 3.3453
v  -76.6386 266.2968 -4.4167
# 4 vertices

vn 0.0626 0.1374 0.9885
# 1 vertex normals

vt 0.0000 0.0000 0.0000
vt 0.0000 1.0000 0.0000
vt 1.0000 1.0000 0.0000
vt 1.0000 0.0000 0.0000
# 4 texture coords

o Plane012
g Plane012
usemtl Material__50
s 1
f 45/45/12 46/46/12 47/47/12 48/48/12 
# 1 polygons

#
# object Plane013
#

v  -147.7294 222.5742 -121.4634
v  -84.3769 105.5386 -112.0120
v  7.7958 164.9209 5.4818
v  -55.5566 281.9566 -3.9696
# 4 vertices

vn -0.6675 -0.3065 0.6786
# 1 vertex normals

vt 0.0000 0.0000 0.0000
vt 0.0000 1.0000 0.0000
vt 1.0000 1.0000 0.0000
vt 1.0000 0.0000 0.0000
# 4 texture coords

o Plane013
g Plane013
usemtl Material__50
s 1
f 49/49/13 50/50/13 51/51/13 52/52/13 
# 1 polygons

#
# object Plane014
#

v  86.1777 348.1712 -85.1464
v  110.6788 220.3794 -114.6280
v  5.5843 174.2760 -2.1269
v  -18.9168 302.0677 27.3547
# 4 vertices

vn -0.7339 0.0159 -0.6791
# 1 vertex normals

vt 0.0000 0.0000 0.0000
vt 0.0000 1.0000 0.0000
vt 1.0000 1.0000 0.0000
vt 1.0000 0.0000 0.0000
# 4 texture coords

o Plane014
g Plane014
usemtl Material__50
s 1
f 53/53/14 54/54/14 55/55/14 56/56/14 
# 1 polygons

#
# object Plane015
#

v  -46.5500 347.1949 -112.0894
v  -63.7280 219.4031 -146.3587
v  -2.8297 173.2996 -4.9630
v  14.3482 301.0914 29.3063
# 4 vertices

vn -0.9164 0.0159 0.3999
# 1 vertex normals

vt 0.0000 0.0000 0.0000
vt 0.0000 1.0000 0.0000
vt 1.0000 1.0000 0.0000
vt 1.0000 0.0000 0.0000
# 4 texture coords

o Plane015
g Plane015
usemtl Material__50
s 1
f 57/57/15 58/58/15 59/59/15 60/60/15 
# 1 polygons

#
# object Plane016
#

v  191.4713 234.4430 17.8656
v  134.6117 113.7976 21.3123
v  -9.5509 181.0921 -1.3912
v  47.3087 301.7375 -4.8380
# 4 vertices

vn 0.1169 -0.0834 -0.9896
# 1 vertex normals

vt 0.0000 0.0000 0.0000
vt 0.0000 1.0000 0.0000
vt 1.0000 1.0000 0.0000
vt 1.0000 0.0000 0.0000
# 4 texture coords

o Plane016
g Plane016
usemtl Material__50
s 1
f 61/61/16 62/62/16 63/63/16 64/64/16 
# 1 polygons

#
# object Plane017
#

v  33.1818 205.3504 196.5604
v  47.0984 97.6207 119.0952
v  -0.3867 183.1632 -8.3980
v  -14.3033 290.8928 69.0672
# 4 vertices

vn 0.9496 0.2543 -0.1831
# 1 vertex normals

vt 0.0000 0.0000 0.0000
vt 0.0000 1.0000 0.0000
vt 1.0000 1.0000 0.0000
vt 1.0000 0.0000 0.0000
# 4 texture coords

o Plane017
g Plane017
usemtl Material__50
s 1
f 65/65/17 66/66/17 67/67/17 68/68/17 
# 1 polygons

#
# object Plane018
#

v  -129.6607 389.7242 64.1579
v  -161.2375 261.9324 85.8921
v  -29.5770 215.8289 6.0995
v  1.9998 343.6207 -15.6347
# 4 vertices

vn 0.5223 0.0159 0.8526
# 1 vertex normals

vt 0.0000 0.0000 0.0000
vt 0.0000 1.0000 0.0000
vt 1.0000 1.0000 0.0000
vt 1.0000 0.0000 0.0000
# 4 texture coords

o Plane018
g Plane018
usemtl Material__50
s 1
f 69/69/18 70/70/18 71/71/18 72/72/18 
# 1 polygons

#
# object Plane019
#

v  -78.4346 338.0659 96.1090
v  -100.9998 210.2741 127.0974
v  -3.3165 164.1706 8.1045
v  19.2487 291.9624 -22.8838
# 4 vertices

vn 0.7758 0.0159 0.6307
# 1 vertex normals

vt 0.0000 0.0000 0.0000
vt 0.0000 1.0000 0.0000
vt 1.0000 1.0000 0.0000
vt 1.0000 0.0000 0.0000
# 4 texture coords

o Plane019
g Plane019
usemtl Material__50
s 1
f 73/73/19 74/74/19 75/75/19 76/76/19 
# 1 polygons

#
# object Plane020
#

v  -178.1443 261.5504 -21.2767
v  -150.2112 131.2214 -27.1331
v  4.0130 162.8246 5.1626
v  -23.9201 293.1537 11.0189
# 4 vertices

vn -0.1877 -0.0842 0.9786
# 1 vertex normals

vt 0.0000 0.0000 0.0000
vt 0.0000 1.0000 0.0000
vt 1.0000 1.0000 0.0000
vt 1.0000 0.0000 0.0000
# 4 texture coords

o Plane020
g Plane020
usemtl Material__50
s 1
f 77/77/20 78/78/20 79/79/20 80/80/20 
# 1 polygons

#
# object Plane021
#

v  -45.9046 467.7386 20.8097
v  -68.4699 376.4659 115.4686
v  29.2134 273.7631 39.7258
v  51.7787 365.0358 -54.9331
# 4 vertices

vn 0.7758 0.3515 0.5239
# 1 vertex normals

vt 0.0000 0.0000 0.0000
vt 0.0000 1.0000 0.0000
vt 1.0000 1.0000 0.0000
vt 1.0000 0.0000 0.0000
# 4 texture coords

o Plane021
g Plane021
usemtl Material__50
s 1
f 81/81/21 82/82/21 83/83/21 84/84/21 
# 1 polygons

#
# object Plane022
#

v  -105.9260 475.1934 -69.6662
v  -156.8035 361.0311 -116.3426
v  -66.7133 278.2710 -12.1245
v  -15.8359 392.4332 34.5518
# 4 vertices

vn -0.7351 0.0512 0.6761
# 1 vertex normals

vt 0.0000 0.0000 0.0000
vt 0.0000 1.0000 0.0000
vt 1.0000 1.0000 0.0000
vt 1.0000 0.0000 0.0000
# 4 texture coords

o Plane022
g Plane022
usemtl Material__50
s 1
f 85/85/22 86/86/22 87/87/22 88/88/22 
# 1 polygons

#
# object Plane023
#

v  77.2455 486.7350 -11.6591
v  146.2043 372.5728 -8.2123
v  10.3287 289.8127 -30.9158
v  -58.6301 403.9749 -34.3626
# 4 vertices

vn 0.1342 0.0512 -0.9896
# 1 vertex normals

vt 0.0000 0.0000 0.0000
vt 0.0000 1.0000 0.0000
vt 1.0000 1.0000 0.0000
vt 1.0000 0.0000 0.0000
# 4 texture coords

o Plane023
g Plane023
usemtl Material__50
s 1
f 89/89/23 90/90/23 91/91/23 92/92/23 
# 1 polygons

#
# object Plane024
#

v  -3.5957 497.0822 -152.5999
v  7.1747 369.2904 -189.3894
v  -44.5690 323.1869 -44.3931
v  -55.3394 450.9787 -7.6036
# 4 vertices

vn -0.9433 0.0159 -0.3316
# 1 vertex normals

vt 0.0000 0.0000 0.0000
vt 0.0000 1.0000 0.0000
vt 1.0000 1.0000 0.0000
vt 1.0000 0.0000 0.0000
# 4 texture coords

o Plane024
g Plane024
usemtl Material__50
s 1
f 93/93/24 94/94/24 95/95/24 96/96/24 
# 1 polygons

